# xmcd CD database file
#
# Track frame offsets:
#	150
#	12379
#	21875
#	38287
#	50062
#	63519
#	86869
#	96771
#	107845
#	124504
#	137703
#	150140
#	159085
#	175061
#	183535
#
# Disc length: 2592 seconds
#
# Revision: 6
# Processed by: cddbd v1.5.2PL0 Copyright (c) Steve Scherf et al.
# Submitted via: CDex 1.51
#
DISCID=b40a1e0f
DTITLE=Biréli Lagrène - Gypsy Project
DYEAR=2001
DGENRE=Jazz
TTITLE0=Blues Clair
TTITLE1=Coquette
TTITLE2=Si tu Savais
TTITLE3=Belleville
TTITLE4=Daphnè (version longue)
TTITLE5=Je suis Seul ce Soir
TTITLE6=Swing 42
TTITLE7=Embraceable you
TTITLE8=Vous et Moi
TTITLE9=Festival 48
TTITLE10=Viper's Dream
TTITLE11=What is this Thing Called Love
TTITLE12=La Mer
TTITLE13=Lime House Blues
TTITLE14=Daphnè (version courte)
EXTD=YEAR: 2001
EXTT0=
EXTT1=
EXTT2=
EXTT3=
EXTT4=
EXTT5=
EXTT6=
EXTT7=
EXTT8=
EXTT9=
EXTT10=
EXTT11=
EXTT12=
EXTT13=
EXTT14=
PLAYORDER=
